<svg width="79" height="39" viewBox="0 0 79 39" fill="none" xmlns="http://www.w3.org/2000/svg">
<rect x="29" y="3" width="5" height="5" fill="#2A9D8F"/>
<rect x="36" y="3" width="15" height="5" fill="#2A9D8F"/>
<rect x="36" y="10" width="15" height="5" fill="#2A9D8F"/>
<rect x="36" y="17" width="15" height="5" fill="#2A9D8F"/>
<rect x="29" y="10" width="5" height="5" fill="#2A9D8F"/>
<rect x="29" y="17" width="5" height="5" fill="#2A9D8F"/>
<path d="M21.1857 32H21.913C21.6971 30.875 20.7539 30.1023 19.5266 30.1023C18.0352 30.1023 16.9812 31.25 16.9812 33.0909C16.9812 34.9318 18.0266 36.0795 19.5721 36.0795C20.9585 36.0795 21.9471 35.1562 21.9471 33.7159V33.0909H19.7312V33.7159H21.2653C21.2454 34.7614 20.5579 35.4205 19.5721 35.4205C18.4925 35.4205 17.663 34.6023 17.663 33.0909C17.663 31.5795 18.4925 30.7614 19.5266 30.7614C20.3675 30.7614 20.9386 31.2358 21.1857 32ZM23.0629 36H23.7333V33.2386C23.7333 32.6477 24.1992 32.2159 24.8356 32.2159C25.0146 32.2159 25.1992 32.25 25.2447 32.2614V31.5795C25.168 31.5739 24.9918 31.5682 24.8924 31.5682C24.3697 31.5682 23.9151 31.8636 23.756 32.2955H23.7106V31.6364H23.0629V36ZM27.6793 36.0909C28.8612 36.0909 29.6566 35.1932 29.6566 33.8409C29.6566 32.4773 28.8612 31.5795 27.6793 31.5795C26.4975 31.5795 25.7021 32.4773 25.7021 33.8409C25.7021 35.1932 26.4975 36.0909 27.6793 36.0909ZM27.6793 35.4886C26.7816 35.4886 26.3725 34.7159 26.3725 33.8409C26.3725 32.9659 26.7816 32.1818 27.6793 32.1818C28.5771 32.1818 28.9862 32.9659 28.9862 33.8409C28.9862 34.7159 28.5771 35.4886 27.6793 35.4886ZM32.4528 36.0909C33.4187 36.0909 34.055 35.5 34.1687 34.7273H33.4982C33.3732 35.2045 32.9755 35.4886 32.4528 35.4886C31.6573 35.4886 31.146 34.8295 31.146 33.8182C31.146 32.8295 31.6687 32.1818 32.4528 32.1818C33.0437 32.1818 33.396 32.5455 33.4982 32.9432H34.1687C34.055 32.125 33.3619 31.5795 32.4414 31.5795C31.2596 31.5795 30.4755 32.5114 30.4755 33.8409C30.4755 35.1477 31.2255 36.0909 32.4528 36.0909ZM36.9783 36.0909C37.8647 36.0909 38.5124 35.6477 38.717 34.9886L38.0692 34.8068C37.8988 35.2614 37.5039 35.4886 36.9783 35.4886C36.1914 35.4886 35.6488 34.9801 35.6175 34.0455H38.7852V33.7614C38.7852 32.1364 37.8192 31.5795 36.9102 31.5795C35.7283 31.5795 34.9442 32.5114 34.9442 33.8523C34.9442 35.1932 35.717 36.0909 36.9783 36.0909ZM35.6175 33.4659C35.663 32.7869 36.1431 32.1818 36.9102 32.1818C37.6374 32.1818 38.1033 32.7273 38.1033 33.4659H35.6175ZM39.805 36H40.4755V33.2386C40.4755 32.6477 40.9414 32.2159 41.5778 32.2159C41.7567 32.2159 41.9414 32.25 41.9869 32.2614V31.5795C41.9102 31.5739 41.734 31.5682 41.6346 31.5682C41.1119 31.5682 40.6573 31.8636 40.4982 32.2955H40.4528V31.6364H39.805V36ZM43.3462 37.6364C43.9513 37.6364 44.3775 37.3153 44.6303 36.6364L46.4883 31.6477L45.7553 31.6364L44.5508 35.1136H44.5053L43.3008 31.6364H42.5735L44.1871 36.0227L44.0621 36.3636C43.8178 37.0284 43.5167 37.0909 43.0281 36.9659L42.8576 37.5568C42.9258 37.5909 43.119 37.6364 43.3462 37.6364ZM49.7163 36H53.1254V35.375H50.4208V30.1818H49.7163V36ZM54.1254 36H54.7958V31.6364H54.1254V36ZM54.4663 30.9091C54.7276 30.9091 54.9435 30.7045 54.9435 30.4545C54.9435 30.2045 54.7276 30 54.4663 30C54.2049 30 53.989 30.2045 53.989 30.4545C53.989 30.7045 54.2049 30.9091 54.4663 30.9091ZM59.1147 32.6136C58.9045 31.9943 58.4329 31.5795 57.5692 31.5795C56.6488 31.5795 55.967 32.1023 55.967 32.8409C55.967 33.4432 56.3249 33.8466 57.1261 34.0341L57.8533 34.2045C58.2937 34.3068 58.5011 34.517 58.5011 34.8182C58.5011 35.1932 58.1033 35.5 57.4783 35.5C56.93 35.5 56.5863 35.2642 56.467 34.7955L55.8306 34.9545C55.9869 35.696 56.5977 36.0909 57.4897 36.0909C58.5039 36.0909 59.1942 35.5369 59.1942 34.7841C59.1942 34.1761 58.8136 33.7926 58.0352 33.6023L57.3874 33.4432C56.8704 33.3153 56.6374 33.142 56.6374 32.8068C56.6374 32.4318 57.0352 32.1591 57.5692 32.1591C58.1545 32.1591 58.396 32.483 58.5124 32.7841L59.1147 32.6136ZM62.1012 31.6364H61.1694V30.5909H60.4989V31.6364H59.8398V32.2045H60.4989V34.9318C60.4989 35.6932 61.1126 36.0568 61.6808 36.0568C61.9308 36.0568 62.0898 36.0114 62.1808 35.9773L62.0444 35.375C61.9876 35.3864 61.8967 35.4091 61.7489 35.4091C61.4535 35.4091 61.1694 35.3182 61.1694 34.75V32.2045H62.1012V31.6364Z" fill="#2A9D8F"/>
</svg>
