<svg width="61" height="37" viewBox="0 0 61 37" fill="none" xmlns="http://www.w3.org/2000/svg">
<path d="M17.9663 33.6667H21.3754V33.0417H18.6708V27.8485H17.9663V33.6667ZM24.1481 33.7576C25.3299 33.7576 26.1254 32.8599 26.1254 31.5076C26.1254 30.144 25.3299 29.2462 24.1481 29.2462C22.9663 29.2462 22.1708 30.144 22.1708 31.5076C22.1708 32.8599 22.9663 33.7576 24.1481 33.7576ZM24.1481 33.1553C23.2504 33.1553 22.8413 32.3826 22.8413 31.5076C22.8413 30.6326 23.2504 29.8485 24.1481 29.8485C25.0458 29.8485 25.4549 30.6326 25.4549 31.5076C25.4549 32.3826 25.0458 33.1553 24.1481 33.1553ZM28.9102 35.394C29.9556 35.394 30.7965 34.9167 30.7965 33.7917V29.3031H30.1488V29.9962H30.0806C29.9329 29.769 29.6602 29.2462 28.8079 29.2462C27.7056 29.2462 26.9442 30.1212 26.9442 31.4621C26.9442 32.8258 27.7397 33.5985 28.7965 33.5985C29.6488 33.5985 29.9215 33.0985 30.0692 32.8599H30.1261V33.7462C30.1261 34.4735 29.6147 34.8031 28.9102 34.8031C28.1175 34.8031 27.8391 34.3854 27.6602 34.144L27.1261 34.519C27.3988 34.9763 27.9357 35.394 28.9102 35.394ZM28.8874 32.9962C28.0465 32.9962 27.6147 32.3599 27.6147 31.4508C27.6147 30.5644 28.0352 29.8485 28.8874 29.8485C29.7056 29.8485 30.1374 30.5076 30.1374 31.4508C30.1374 32.4167 29.6942 32.9962 28.8874 32.9962ZM33.7965 33.7576C34.9783 33.7576 35.7738 32.8599 35.7738 31.5076C35.7738 30.144 34.9783 29.2462 33.7965 29.2462C32.6147 29.2462 31.8192 30.144 31.8192 31.5076C31.8192 32.8599 32.6147 33.7576 33.7965 33.7576ZM33.7965 33.1553C32.8988 33.1553 32.4897 32.3826 32.4897 31.5076C32.4897 30.6326 32.8988 29.8485 33.7965 29.8485C34.6942 29.8485 35.1033 30.6326 35.1033 31.5076C35.1033 32.3826 34.6942 33.1553 33.7965 33.1553ZM39.5472 31.8826C39.5472 32.7008 38.9222 33.0758 38.4222 33.0758C37.8654 33.0758 37.4677 32.6667 37.4677 32.0303V29.3031H36.7972V32.0758C36.7972 33.1894 37.3881 33.7235 38.2063 33.7235C38.8654 33.7235 39.2972 33.3712 39.5018 32.9281H39.5472V33.6667H40.2177V29.3031H39.5472V31.8826ZM43.3434 29.3031H42.4116V28.2576H41.7411V29.3031H41.082V29.8712H41.7411V32.5985C41.7411 33.3599 42.3548 33.7235 42.9229 33.7235C43.1729 33.7235 43.332 33.6781 43.4229 33.644L43.2866 33.0417C43.2298 33.0531 43.1388 33.0758 42.9911 33.0758C42.6957 33.0758 42.4116 32.9849 42.4116 32.4167V29.8712H43.3434V29.3031Z" fill="#2A9D8F"/>
<line x1="34.5" y1="2.5" x2="23.5" y2="2.5" stroke="#2A9D8F" stroke-linecap="round"/>
<line x1="23.5" y1="2.5" x2="23.5" y2="20.1667" stroke="#2A9D8F" stroke-linecap="round"/>
<line x1="34.5" y1="20.1842" x2="23.5" y2="20.1842" stroke="#2A9D8F" stroke-linecap="round"/>
<path d="M32 11.1667C31.7239 11.1667 31.5 11.3905 31.5 11.6667C31.5 11.9428 31.7239 12.1667 32 12.1667V11.1667ZM38.8536 12.0202C39.0488 11.825 39.0488 11.5084 38.8536 11.3131L35.6716 8.13115C35.4763 7.93589 35.1597 7.93589 34.9645 8.13115C34.7692 8.32642 34.7692 8.643 34.9645 8.83826L37.7929 11.6667L34.9645 14.4951C34.7692 14.6904 34.7692 15.007 34.9645 15.2022C35.1597 15.3975 35.4763 15.3975 35.6716 15.2022L38.8536 12.0202ZM32 12.1667H38.5V11.1667H32V12.1667Z" fill="#2A9D8F"/>
</svg>
