<svg width="34" height="37" viewBox="0 0 34 37" fill="none" xmlns="http://www.w3.org/2000/svg">
<mask id="path-1-inside-1_121:1744" fill="white">
<path fill-rule="evenodd" clip-rule="evenodd" d="M5.04107 8.00005C5.01387 8.32978 5 8.66329 5 9.00005C5 15.6275 10.3726 21 17 21C23.6274 21 29 15.6275 29 9.00005C29 8.66329 28.9861 8.32978 28.9589 8.00005H5.04107Z"/>
</mask>
<path fill-rule="evenodd" clip-rule="evenodd" d="M5.04107 8.00005C5.01387 8.32978 5 8.66329 5 9.00005C5 15.6275 10.3726 21 17 21C23.6274 21 29 15.6275 29 9.00005C29 8.66329 28.9861 8.32978 28.9589 8.00005H5.04107Z" fill="#2A9D8F"/>
<path d="M5.04107 8.00005V7.00005H4.12017L4.04446 7.91783L5.04107 8.00005ZM28.9589 8.00005L29.9555 7.91783L29.8798 7.00005H28.9589V8.00005ZM6 9.00005C6 8.69077 6.01274 8.38468 6.03769 8.08226L4.04446 7.91783C4.015 8.27488 4 8.63582 4 9.00005H6ZM17 20C10.9249 20 6 15.0752 6 9.00005H4C4 16.1797 9.8203 22 17 22V20ZM28 9.00005C28 15.0752 23.0751 20 17 20V22C24.1797 22 30 16.1797 30 9.00005H28ZM27.9623 8.08227C27.9873 8.38468 28 8.69076 28 9.00005H30C30 8.63582 29.985 8.27488 29.9555 7.91783L27.9623 8.08227ZM28.9589 7.00005H5.04107V9.00005H28.9589V7.00005Z" fill="#2A9D8F" mask="url(#path-1-inside-1_121:1744)"/>
<mask id="path-3-inside-2_121:1744" fill="white">
<path fill-rule="evenodd" clip-rule="evenodd" d="M17.9334 8.98688C17.947 8.8859 17.9546 8.78368 17.9558 8.6804C17.9802 6.64778 15.5537 4.97065 12.536 4.93442C9.51833 4.89819 7.05224 6.51659 7.02783 8.5492C7.02659 8.65249 7.03168 8.75486 7.04285 8.85614L17.9334 8.98688Z"/>
</mask>
<path fill-rule="evenodd" clip-rule="evenodd" d="M17.9334 8.98688C17.947 8.8859 17.9546 8.78368 17.9558 8.6804C17.9802 6.64778 15.5537 4.97065 12.536 4.93442C9.51833 4.89819 7.05224 6.51659 7.02783 8.5492C7.02659 8.65249 7.03168 8.75486 7.04285 8.85614L17.9334 8.98688Z" fill="#2A9D8F"/>
<path d="M17.9334 8.98688L17.9214 9.98681L18.8064 9.99743L18.9245 9.12036L17.9334 8.98688ZM7.04285 8.85614L6.04888 8.96579L6.14593 9.84544L7.03085 9.85606L7.04285 8.85614ZM16.9559 8.66839C16.9552 8.73083 16.9506 8.79248 16.9424 8.8534L18.9245 9.12036C18.9435 8.97932 18.954 8.83654 18.9558 8.6924L16.9559 8.66839ZM12.524 5.93435C13.8609 5.9504 15.022 6.33115 15.8181 6.8814C16.6203 7.4358 16.9629 8.08563 16.9559 8.66839L18.9558 8.6924C18.9732 7.24255 18.1147 6.0375 16.9553 5.23613C15.7898 4.4306 14.2288 3.95467 12.548 3.93449L12.524 5.93435ZM8.02776 8.56121C8.03476 7.97844 8.39289 7.33703 9.20811 6.80204C10.0172 6.27107 11.1871 5.9183 12.524 5.93435L12.548 3.93449C10.8672 3.91431 9.29526 4.35263 8.11078 5.12995C6.93243 5.90325 6.04531 7.08735 6.02791 8.5372L8.02776 8.56121ZM8.03682 8.74648C8.03008 8.68539 8.02701 8.62365 8.02776 8.56121L6.02791 8.5372C6.02618 8.68133 6.03328 8.82432 6.04888 8.96579L8.03682 8.74648ZM7.03085 9.85606L17.9214 9.98681L17.9454 7.98695L7.05486 7.85621L7.03085 9.85606Z" fill="#2A9D8F" mask="url(#path-3-inside-2_121:1744)"/>
<mask id="path-5-inside-3_121:1744" fill="white">
<path fill-rule="evenodd" clip-rule="evenodd" d="M26.9829 8.99984C26.9957 8.87947 27.0029 8.75766 27.0044 8.63459C27.0335 6.21274 24.8185 4.22257 22.0571 4.18942C19.2957 4.15627 17.0336 6.09269 17.0046 8.51454C17.0031 8.63761 17.0074 8.75956 17.0173 8.8802L26.9829 8.99984Z"/>
</mask>
<path fill-rule="evenodd" clip-rule="evenodd" d="M26.9829 8.99984C26.9957 8.87947 27.0029 8.75766 27.0044 8.63459C27.0335 6.21274 24.8185 4.22257 22.0571 4.18942C19.2957 4.15627 17.0336 6.09269 17.0046 8.51454C17.0031 8.63761 17.0074 8.75956 17.0173 8.8802L26.9829 8.99984Z" fill="#2A9D8F"/>
<path d="M26.9829 8.99984L26.9709 9.99977L27.8812 10.0107L27.9773 9.10544L26.9829 8.99984ZM17.0173 8.8802L16.0206 8.9619L16.095 9.8692L17.0053 9.88013L17.0173 8.8802ZM26.0045 8.62259C26.0034 8.71432 25.998 8.8049 25.9885 8.89424L27.9773 9.10544C27.9934 8.95405 28.0025 8.801 28.0043 8.6466L26.0045 8.62259ZM22.0451 5.18935C24.3815 5.2174 26.0255 6.8722 26.0045 8.62259L28.0043 8.6466C28.0415 5.55329 25.2555 3.22775 22.0691 3.1895L22.0451 5.18935ZM18.0045 8.52655C18.0255 6.77616 19.7087 5.1613 22.0451 5.18935L22.0691 3.1895C18.8828 3.15124 16.0418 5.40923 16.0046 8.50254L18.0045 8.52655ZM18.0139 8.7985C18.0066 8.70896 18.0034 8.61828 18.0045 8.52655L16.0046 8.50254C16.0028 8.65694 16.0082 8.81016 16.0206 8.9619L18.0139 8.7985ZM17.0053 9.88013L26.9709 9.99977L26.9949 7.99991L17.0293 7.88027L17.0053 9.88013Z" fill="#2A9D8F" mask="url(#path-5-inside-3_121:1744)"/>
<mask id="path-7-inside-4_121:1744" fill="white">
<path d="M13.2521 5.6571C13.1128 3.95487 14.5733 2.44623 16.5142 2.28747C18.4551 2.12871 20.1413 3.37993 20.2806 5.08217C20.4198 6.7844 18.9593 8.29303 17.0184 8.4518C15.0776 8.61056 13.3913 7.35934 13.2521 5.6571Z"/>
</mask>
<path d="M13.2521 5.6571C13.1128 3.95487 14.5733 2.44623 16.5142 2.28747C18.4551 2.12871 20.1413 3.37993 20.2806 5.08217C20.4198 6.7844 18.9593 8.29303 17.0184 8.4518C15.0776 8.61056 13.3913 7.35934 13.2521 5.6571Z" fill="#2A9D8F"/>
<path d="M14.2487 5.57558C14.1642 4.54261 15.0784 3.40826 16.5957 3.28414L16.4327 1.2908C14.0682 1.48421 12.0614 3.36713 12.2554 5.73863L14.2487 5.57558ZM16.5957 3.28414C18.113 3.16003 19.1994 4.13073 19.2839 5.16369L21.2773 5.00064C21.0833 2.62913 18.7971 1.09739 16.4327 1.2908L16.5957 3.28414ZM19.2839 5.16369C19.3684 6.19666 18.4542 7.33101 16.9369 7.45513L17.1 9.44847C19.4644 9.25506 21.4713 7.37214 21.2773 5.00064L19.2839 5.16369ZM16.9369 7.45513C15.4196 7.57924 14.3332 6.60854 14.2487 5.57558L12.2554 5.73863C12.4494 8.11013 14.7355 9.64188 17.1 9.44847L16.9369 7.45513Z" fill="#2A9D8F" mask="url(#path-7-inside-4_121:1744)"/>
<line x1="5" y1="8.50005" x2="29" y2="8.50005" stroke="#2A9D8F"/>
<path fill-rule="evenodd" clip-rule="evenodd" d="M8.65085 0.263733C7.968 0.732784 7.79468 1.66658 8.26373 2.34943L10.4144 5.48045V5.41442H13.8171C13.7861 5.19085 13.704 4.97091 13.5675 4.77221L10.7365 0.650848C10.2675 -0.0320004 9.3337 -0.205318 8.65085 0.263733Z" fill="#2A9D8F"/>
<path d="M2.8022 35H3.50675V32.7273H4.77947C4.83061 32.7273 4.87891 32.7273 4.9272 32.7244L6.15447 35H6.97266L5.65732 32.5966C6.39879 32.3438 6.74538 31.7386 6.74538 30.9659C6.74538 29.9375 6.13175 29.1818 4.76811 29.1818H2.8022V35ZM3.50675 32.0909V29.8068H4.74538C5.68857 29.8068 6.0522 30.267 6.0522 30.9659C6.0522 31.6648 5.68857 32.0909 4.75675 32.0909H3.50675ZM9.61115 35.0909C10.4975 35.0909 11.1452 34.6477 11.3498 33.9886L10.7021 33.8068C10.5316 34.2614 10.1367 34.4886 9.61115 34.4886C8.82422 34.4886 8.28161 33.9801 8.25036 33.0455H11.418V32.7614C11.418 31.1364 10.4521 30.5795 9.54297 30.5795C8.36115 30.5795 7.57706 31.5114 7.57706 32.8523C7.57706 34.1932 8.34979 35.0909 9.61115 35.0909ZM8.25036 32.4659C8.29581 31.7869 8.77592 31.1818 9.54297 31.1818C10.2702 31.1818 10.7362 31.7273 10.7362 32.4659H8.25036ZM14.2106 35.0909C15.1765 35.0909 15.8129 34.5 15.9265 33.7273H15.256C15.131 34.2045 14.7333 34.4886 14.2106 34.4886C13.4151 34.4886 12.9038 33.8295 12.9038 32.8182C12.9038 31.8295 13.4265 31.1818 14.2106 31.1818C14.8015 31.1818 15.1538 31.5455 15.256 31.9432H15.9265C15.8129 31.125 15.1197 30.5795 14.1992 30.5795C13.0174 30.5795 12.2333 31.5114 12.2333 32.8409C12.2333 34.1477 12.9833 35.0909 14.2106 35.0909ZM16.9066 35H17.5771V30.6364H16.9066V35ZM17.2475 29.9091C17.5089 29.9091 17.7248 29.7045 17.7248 29.4545C17.7248 29.2045 17.5089 29 17.2475 29C16.9862 29 16.7702 29.2045 16.7702 29.4545C16.7702 29.7045 16.9862 29.9091 17.2475 29.9091ZM18.805 36.6364H19.4755V34.3295H19.5323C19.68 34.5682 19.9641 35.0909 20.805 35.0909C21.896 35.0909 22.6573 34.2159 22.6573 32.8295C22.6573 31.4545 21.896 30.5795 20.7937 30.5795C19.9414 30.5795 19.68 31.1023 19.5323 31.3295H19.4528V30.6364H18.805V36.6364ZM19.4641 32.8182C19.4641 31.8409 19.896 31.1818 20.7141 31.1818C21.5664 31.1818 21.9869 31.8977 21.9869 32.8182C21.9869 33.75 21.555 34.4886 20.7141 34.4886C19.9073 34.4886 19.4641 33.8068 19.4641 32.8182ZM25.5096 35.0909C26.396 35.0909 27.0437 34.6477 27.2482 33.9886L26.6005 33.8068C26.43 34.2614 26.0352 34.4886 25.5096 34.4886C24.7227 34.4886 24.18 33.9801 24.1488 33.0455H27.3164V32.7614C27.3164 31.1364 26.3505 30.5795 25.4414 30.5795C24.2596 30.5795 23.4755 31.5114 23.4755 32.8523C23.4755 34.1932 24.2482 35.0909 25.5096 35.0909ZM24.1488 32.4659C24.1942 31.7869 24.6744 31.1818 25.4414 31.1818C26.1687 31.1818 26.6346 31.7273 26.6346 32.4659H24.1488ZM31.4272 31.6136C31.217 30.9943 30.7454 30.5795 29.8817 30.5795C28.9613 30.5795 28.2795 31.1023 28.2795 31.8409C28.2795 32.4432 28.6374 32.8466 29.4386 33.0341L30.1658 33.2045C30.6062 33.3068 30.8136 33.517 30.8136 33.8182C30.8136 34.1932 30.4158 34.5 29.7908 34.5C29.2425 34.5 28.8988 34.2642 28.7795 33.7955L28.1431 33.9545C28.2994 34.696 28.9102 35.0909 29.8022 35.0909C30.8164 35.0909 31.5067 34.5369 31.5067 33.7841C31.5067 33.1761 31.1261 32.7926 30.3477 32.6023L29.6999 32.4432C29.1829 32.3153 28.9499 32.142 28.9499 31.8068C28.9499 31.4318 29.3477 31.1591 29.8817 31.1591C30.467 31.1591 30.7085 31.483 30.8249 31.7841L31.4272 31.6136Z" fill="#2A9D8F"/>
</svg>
