<svg width="34" height="37" viewBox="0 0 34 37" fill="none" xmlns="http://www.w3.org/2000/svg">
<path fill-rule="evenodd" clip-rule="evenodd" d="M5.04107 8.00006C5.01387 8.32979 5 8.66331 5 9.00006C5 15.6275 10.3726 21.0001 17 21.0001C23.6274 21.0001 29 15.6275 29 9.00006C29 8.66331 28.9861 8.32979 28.9589 8.00006H27.9552C27.9848 8.32942 28 8.66297 28 9.00006C28 15.0752 23.0751 20.0001 17 20.0001C10.9249 20.0001 6 15.0752 6 9.00006C6 8.66297 6.01516 8.32942 6.04484 8.00006H5.04107Z" fill="#2A9D8F"/>
<path fill-rule="evenodd" clip-rule="evenodd" d="M17.9334 8.9869C17.947 8.88591 17.9546 8.7837 17.9558 8.68041C17.9802 6.6478 15.5537 4.97066 12.536 4.93444C9.51833 4.89821 7.05224 6.5166 7.02783 8.54922C7.02659 8.6525 7.03168 8.75487 7.04285 8.85615L8.05599 8.86832C8.03577 8.76451 8.02655 8.66187 8.02776 8.56122C8.03476 7.97846 8.39289 7.33705 9.20811 6.80206C10.0172 6.27108 11.1871 5.91831 12.524 5.93436C13.8609 5.95041 15.022 6.33117 15.8181 6.88141C16.6203 7.43582 16.9629 8.08564 16.9559 8.66841C16.9547 8.76905 16.943 8.87144 16.9203 8.97473L17.9334 8.9869Z" fill="#2A9D8F"/>
<path fill-rule="evenodd" clip-rule="evenodd" d="M26.9829 8.99986C26.9957 8.87949 27.0029 8.75768 27.0044 8.63461C27.0335 6.21276 24.8185 4.22259 22.0571 4.18944C19.2957 4.15629 17.0336 6.09271 17.0046 8.51456C17.0031 8.63762 17.0074 8.75958 17.0173 8.88022L18.0242 8.8923C18.0097 8.77121 18.003 8.64912 18.0045 8.52656C18.0255 6.77617 19.7087 5.16132 22.0451 5.18937C24.3815 5.21742 26.0255 6.87221 26.0045 8.6226C26.003 8.74516 25.9934 8.86706 25.9759 8.98777L26.9829 8.99986Z" fill="#2A9D8F"/>
<path fill-rule="evenodd" clip-rule="evenodd" d="M20.2897 5.34003C20.2908 5.25469 20.2878 5.16869 20.2807 5.08219C20.1415 3.37995 18.4552 2.12873 16.5144 2.28749C14.5735 2.44625 13.113 3.95489 13.2522 5.65712C13.2593 5.74362 13.2704 5.82896 13.2853 5.913L14.2903 5.83079C14.2698 5.74655 14.2559 5.66129 14.2489 5.57559C14.1644 4.54263 15.0786 3.40828 16.5959 3.28416C18.1132 3.16005 19.1996 4.13075 19.2841 5.16371C19.2911 5.2494 19.2912 5.33579 19.2847 5.42225L20.2897 5.34003Z" fill="#2A9D8F"/>
<line x1="5" y1="8.50006" x2="29" y2="8.50006" stroke="#2A9D8F"/>
<path fill-rule="evenodd" clip-rule="evenodd" d="M9.91228 1.21707L12.7432 5.33843C12.7601 5.3629 12.7744 5.38834 12.7863 5.41445H13.8171C13.7861 5.19088 13.704 4.97094 13.5675 4.77224L10.7365 0.650879C10.2675 -0.0319699 9.3337 -0.205287 8.65085 0.263764C7.968 0.732815 7.79468 1.66661 8.26373 2.34946L10.4144 5.48048V5.41445H11.5823L9.088 1.78327C8.93165 1.55565 8.98943 1.24439 9.21704 1.08804C9.44466 0.931685 9.75593 0.989457 9.91228 1.21707Z" fill="#2A9D8F"/>
<path d="M2.8022 35H3.50675V32.7273H4.77947C4.83061 32.7273 4.87891 32.7273 4.9272 32.7245L6.15447 35H6.97266L5.65732 32.5966C6.39879 32.3438 6.74538 31.7387 6.74538 30.9659C6.74538 29.9375 6.13175 29.1818 4.76811 29.1818H2.8022V35ZM3.50675 32.0909V29.8068H4.74538C5.68857 29.8068 6.0522 30.2671 6.0522 30.9659C6.0522 31.6648 5.68857 32.0909 4.75675 32.0909H3.50675ZM9.61115 35.0909C10.4975 35.0909 11.1452 34.6478 11.3498 33.9887L10.7021 33.8068C10.5316 34.2614 10.1367 34.4887 9.61115 34.4887C8.82422 34.4887 8.28161 33.9801 8.25036 33.0455H11.418V32.7614C11.418 31.1364 10.4521 30.5796 9.54297 30.5796C8.36115 30.5796 7.57706 31.5114 7.57706 32.8523C7.57706 34.1932 8.34979 35.0909 9.61115 35.0909ZM8.25036 32.4659C8.29581 31.787 8.77592 31.1818 9.54297 31.1818C10.2702 31.1818 10.7362 31.7273 10.7362 32.4659H8.25036ZM14.2106 35.0909C15.1765 35.0909 15.8129 34.5 15.9265 33.7273H15.256C15.131 34.2046 14.7333 34.4887 14.2106 34.4887C13.4151 34.4887 12.9038 33.8296 12.9038 32.8182C12.9038 31.8296 13.4265 31.1818 14.2106 31.1818C14.8015 31.1818 15.1538 31.5455 15.256 31.9432H15.9265C15.8129 31.125 15.1197 30.5796 14.1992 30.5796C13.0174 30.5796 12.2333 31.5114 12.2333 32.8409C12.2333 34.1478 12.9833 35.0909 14.2106 35.0909ZM16.9066 35H17.5771V30.6364H16.9066V35ZM17.2475 29.9091C17.5089 29.9091 17.7248 29.7046 17.7248 29.4546C17.7248 29.2046 17.5089 29 17.2475 29C16.9862 29 16.7702 29.2046 16.7702 29.4546C16.7702 29.7046 16.9862 29.9091 17.2475 29.9091ZM18.805 36.6364H19.4755V34.3296H19.5323C19.68 34.5682 19.9641 35.0909 20.805 35.0909C21.896 35.0909 22.6573 34.2159 22.6573 32.8296C22.6573 31.4546 21.896 30.5796 20.7937 30.5796C19.9414 30.5796 19.68 31.1023 19.5323 31.3296H19.4528V30.6364H18.805V36.6364ZM19.4641 32.8182C19.4641 31.8409 19.896 31.1818 20.7141 31.1818C21.5664 31.1818 21.9869 31.8978 21.9869 32.8182C21.9869 33.75 21.555 34.4887 20.7141 34.4887C19.9073 34.4887 19.4641 33.8068 19.4641 32.8182ZM25.5096 35.0909C26.396 35.0909 27.0437 34.6478 27.2482 33.9887L26.6005 33.8068C26.43 34.2614 26.0352 34.4887 25.5096 34.4887C24.7227 34.4887 24.18 33.9801 24.1488 33.0455H27.3164V32.7614C27.3164 31.1364 26.3505 30.5796 25.4414 30.5796C24.2596 30.5796 23.4755 31.5114 23.4755 32.8523C23.4755 34.1932 24.2482 35.0909 25.5096 35.0909ZM24.1488 32.4659C24.1942 31.787 24.6744 31.1818 25.4414 31.1818C26.1687 31.1818 26.6346 31.7273 26.6346 32.4659H24.1488ZM31.4272 31.6137C31.217 30.9943 30.7454 30.5796 29.8817 30.5796C28.9613 30.5796 28.2795 31.1023 28.2795 31.8409C28.2795 32.4432 28.6374 32.8466 29.4386 33.0341L30.1658 33.2046C30.6062 33.3068 30.8136 33.5171 30.8136 33.8182C30.8136 34.1932 30.4158 34.5 29.7908 34.5C29.2425 34.5 28.8988 34.2642 28.7795 33.7955L28.1431 33.9546C28.2994 34.6961 28.9102 35.0909 29.8022 35.0909C30.8164 35.0909 31.5067 34.537 31.5067 33.7841C31.5067 33.1762 31.1261 32.7926 30.3477 32.6023L29.6999 32.4432C29.1829 32.3154 28.9499 32.1421 28.9499 31.8068C28.9499 31.4318 29.3477 31.1591 29.8817 31.1591C30.467 31.1591 30.7085 31.483 30.8249 31.7841L31.4272 31.6137Z" fill="#2A9D8F"/>
</svg>
